name Run_40002_GRF.mot
datacolumns 19
datarows 10
range 1.375 1.384
endheader
time	     ground_force_vx	     ground_force_vy	     ground_force_vz	     ground_force_px	     ground_force_py	     ground_force_pz	   l_ground_force_vx	   l_ground_force_vy	   l_ground_force_vz	   l_ground_force_px	   l_ground_force_py	   l_ground_force_pz	     ground_torque_x	     ground_torque_y	     ground_torque_z	   l_ground_torque_x	   l_ground_torque_y	   l_ground_torque_z	
1.375	          0.00000000	          0.00000000	          0.00000000	          0.00000000	          0.00000000	          0.00000000	        196.21360800	       1145.74292000	        -37.53124600	          0.78782700	          0.00000000	         -0.34730800	          0.00000000	          0.00000000	          0.00000000	         -0.00000000	          8.64652800	         -0.00000000	
1.376	          0.00000000	          0.00000000	          0.00000000	          0.00000000	          0.00000000	          0.00000000	        198.86395300	       1123.17407200	        -37.72334300	          0.78445900	          0.00000000	         -0.34725200	          0.00000000	          0.00000000	          0.00000000	         -0.00000000	          8.71063500	         -0.00000000	
1.377	          0.00000000	          0.00000000	          0.00000000	          0.00000000	          0.00000000	          0.00000000	        201.15806600	       1100.59594700	        -37.85879100	          0.78115200	          0.00000000	         -0.34719100	          0.00000000	          0.00000000	          0.00000000	         -0.00000000	          8.76601900	         -0.00000000	
1.378	          0.00000000	          0.00000000	          0.00000000	          0.00000000	          0.00000000	          0.00000000	        203.09933500	       1078.01879900	        -37.93798400	          0.77790800	          0.00000000	         -0.34712400	          0.00000000	          0.00000000	          0.00000000	         -0.00000000	          8.81247400	         -0.00000000	
1.379	          0.00000000	          0.00000000	          0.00000000	          0.00000000	          0.00000000	          0.00000000	        204.69422900	       1055.45166000	        -37.96197100	          0.77472900	          0.00000000	         -0.34705100	          0.00000000	          0.00000000	          0.00000000	         -0.00000000	          8.84982500	         -0.00000000	
1.38	          0.00000000	          0.00000000	          0.00000000	          0.00000000	          0.00000000	          0.00000000	        205.95184300	       1032.90271000	        -37.93242600	          0.77161600	          0.00000000	         -0.34697300	          0.00000000	          0.00000000	          0.00000000	         -0.00000000	          8.87793100	         -0.00000000	
1.381	          0.00000000	          0.00000000	          0.00000000	          0.00000000	          0.00000000	          0.00000000	        206.88343800	       1010.37970000	        -37.85161200	          0.76856800	          0.00000000	         -0.34689000	          0.00000000	          0.00000000	          0.00000000	         -0.00000000	          8.89667900	         -0.00000000	
1.382	          0.00000000	          0.00000000	          0.00000000	          0.00000000	          0.00000000	          0.00000000	        207.50212100	        987.88964800	        -37.72232100	          0.76558300	          0.00000000	         -0.34680200	          0.00000000	          0.00000000	          0.00000000	         -0.00000000	          8.90599300	         -0.00000000	
1.383	          0.00000000	          0.00000000	          0.00000000	          0.00000000	          0.00000000	          0.00000000	        207.82246400	        965.43963600	        -37.54779800	          0.76265900	          0.00000000	         -0.34671100	          0.00000000	          0.00000000	          0.00000000	         -0.00000000	          8.90582800	         -0.00000000	
1.384	          0.00000000	          0.00000000	          0.00000000	          0.00000000	          0.00000000	          0.00000000	        207.86024500	        943.03656000	        -37.33169600	          0.75979300	          0.00000000	         -0.34661700	          0.00000000	          0.00000000	          0.00000000	         -0.00000000	          8.89616800	         -0.00000000	
